<svg width="34" height="34" viewBox="0 0 34 34" fill="none" xmlns="http://www.w3.org/2000/svg">
<rect width="34" height="34" rx="17" fill="#212121"/>
<g clip-path="url(#clip0_221_1920)">
<path d="M14.667 17C14.667 15.7114 15.7114 14.6665 17 14.6665C18.2886 14.6665 19.3335 15.7114 19.3335 17C19.3335 18.2886 18.2886 19.3335 17 19.3335C15.7114 19.3335 14.667 18.2886 14.667 17ZM13.4056 17C13.4056 18.9852 15.0148 20.5944 17 20.5944C18.9852 20.5944 20.5944 18.9852 20.5944 17C20.5944 15.0148 18.9852 13.4056 17 13.4056C15.0148 13.4056 13.4056 15.0148 13.4056 17ZM19.8967 13.2631C19.8967 13.7267 20.2727 14.1033 20.7369 14.1033C21.2006 14.1033 21.5771 13.7267 21.5771 13.2631C21.5771 12.7994 21.2011 12.4234 20.7369 12.4234C20.2727 12.4234 19.8967 12.7994 19.8967 13.2631ZM14.1717 22.6978C13.4893 22.6667 13.1183 22.5531 12.8718 22.4569C12.545 22.3297 12.312 22.1782 12.0666 21.9334C11.8218 21.6885 11.6697 21.4556 11.5431 21.1288C11.4469 20.8822 11.3333 20.5113 11.3022 19.8288C11.2683 19.091 11.2615 18.8693 11.2615 17C11.2615 15.1307 11.2688 14.9096 11.3022 14.1712C11.3333 13.4887 11.4475 13.1183 11.5431 12.8712C11.6703 12.5444 11.8218 12.3115 12.0666 12.0661C12.3115 11.8212 12.5444 11.6691 12.8718 11.5425C13.1183 11.4464 13.4893 11.3327 14.1717 11.3016C14.9096 11.2677 15.1313 11.2609 17 11.2609C18.8693 11.2609 19.0904 11.2683 19.8288 11.3016C20.5113 11.3327 20.8817 11.4469 21.1288 11.5425C21.4556 11.6691 21.6885 11.8212 21.9339 12.0661C22.1788 12.3109 22.3303 12.5444 22.4575 12.8712C22.5536 13.1178 22.6673 13.4887 22.6984 14.1712C22.7323 14.9096 22.7391 15.1307 22.7391 17C22.7391 18.8687 22.7323 19.0904 22.6984 19.8288C22.6673 20.5113 22.5531 20.8822 22.4575 21.1288C22.3303 21.4556 22.1788 21.6885 21.9339 21.9334C21.6891 22.1782 21.4556 22.3297 21.1288 22.4569C20.8822 22.5531 20.5113 22.6667 19.8288 22.6978C19.091 22.7317 18.8693 22.7385 17 22.7385C15.1313 22.7385 14.9096 22.7317 14.1717 22.6978ZM14.1141 10.0424C13.3688 10.0763 12.8599 10.1945 12.4149 10.3675C11.9547 10.5462 11.5645 10.7859 11.175 11.175C10.7859 11.564 10.5462 11.9541 10.3675 12.4149C10.1945 12.8599 10.0763 13.3688 10.0424 14.1141C10.0079 14.8604 10 15.099 10 17C10 18.901 10.0079 19.1396 10.0424 19.8859C10.0763 20.6312 10.1945 21.1401 10.3675 21.5851C10.5462 22.0453 10.7854 22.436 11.175 22.825C11.564 23.2141 11.9541 23.4532 12.4149 23.6325C12.8605 23.8055 13.3688 23.9237 14.1141 23.9576C14.861 23.9915 15.099 24 17 24C18.9015 24 19.1396 23.9921 19.8859 23.9576C20.6312 23.9237 21.1401 23.8055 21.5851 23.6325C22.0453 23.4532 22.4355 23.2141 22.825 22.825C23.2141 22.436 23.4532 22.0453 23.6325 21.5851C23.8055 21.1401 23.9242 20.6312 23.9576 19.8859C23.9915 19.139 23.9994 18.901 23.9994 17C23.9994 15.099 23.9915 14.8604 23.9576 14.1141C23.9237 13.3688 23.8055 12.8599 23.6325 12.4149C23.4532 11.9547 23.2141 11.5645 22.825 11.175C22.436 10.7859 22.0453 10.5462 21.5856 10.3675C21.1401 10.1945 20.6312 10.0758 19.8865 10.0424C19.1401 10.0085 18.9015 10 17.0006 10C15.099 10 14.861 10.0079 14.1141 10.0424Z" fill="white"/>
</g>
<defs>
<clipPath id="clip0_221_1920">
<rect width="14" height="14" fill="white" transform="translate(10 10)"/>
</clipPath>
</defs>
</svg>
