<svg width="24" height="24" viewBox="0 0 24 24" fill="none" xmlns="http://www.w3.org/2000/svg">
<path d="M15.3516 9.04615C15.3516 9.92527 15.1851 10.7429 14.8521 11.4989C14.5192 12.2725 14.0679 12.9407 13.4984 13.5033C12.9288 14.0659 12.2673 14.5143 11.5137 14.8484C10.7426 15.1824 9.91895 15.3495 9.04272 15.3495C8.18401 15.3495 7.36911 15.1824 6.59803 14.8484C5.84447 14.5143 5.17853 14.0615 4.60022 13.4901C4.02191 12.9187 3.57503 12.2549 3.25958 11.4989C2.92662 10.7253 2.76013 9.8989 2.76013 9.01978C2.76013 8.15824 2.92662 7.34066 3.25958 6.56703C3.57503 5.79341 4.02191 5.12088 4.60022 4.54945C5.17853 3.97802 5.84447 3.52527 6.59803 3.19121C7.36911 2.87473 8.18401 2.71648 9.04272 2.71648C9.91895 2.71648 10.7426 2.88352 11.5137 3.21758C12.2673 3.55165 12.9332 4.00439 13.5115 4.57582C14.0898 5.14725 14.5367 5.81978 14.8521 6.59341C15.1851 7.34945 15.3516 8.16703 15.3516 9.04615ZM24 22.3912C24 22.1626 23.9562 21.9516 23.8686 21.7582C23.7809 21.5648 23.667 21.3978 23.5268 21.2571L16.4819 14.611C16.9551 13.8198 17.3363 12.9538 17.6254 12.0132C17.9146 11.0725 18.0767 10.0923 18.1117 9.07253C18.1117 7.82417 17.8664 6.64615 17.3757 5.53846C16.9025 4.43077 16.2585 3.46813 15.4436 2.65055C14.6287 1.83297 13.6692 1.18681 12.5652 0.712088C11.4786 0.237362 10.3045 0 9.04272 0C7.79847 0 6.62432 0.237362 5.52026 0.712088C4.43373 1.18681 3.47864 1.83297 2.65498 2.65055C1.83133 3.46813 1.18291 4.43077 0.709748 5.53846C0.236583 6.64615 0 7.82417 0 9.07253C0 10.3385 0.236583 11.5165 0.709748 12.6066C1.18291 13.7143 1.83133 14.6813 2.65498 15.5077C3.47864 16.3341 4.43373 16.9846 5.52026 17.4593C6.62432 17.9341 7.79847 18.1714 9.04272 18.1714C10.0767 18.1363 11.0624 17.9736 12 17.6835C12.9376 17.3934 13.8182 16.9934 14.6418 16.4835L21.2662 23.5253C21.4064 23.6835 21.5728 23.8022 21.7656 23.8813C21.9584 23.9604 22.1687 24 22.3965 24C22.8346 24 23.2114 23.8418 23.5268 23.5253C23.8423 23.2088 24 22.8308 24 22.3912Z" fill="#BB8B05"/>
</svg>
