<svg width="34" height="34" viewBox="0 0 34 34" fill="none" xmlns="http://www.w3.org/2000/svg">
<rect width="34" height="34" rx="17" fill="#212121"/>
<g clip-path="url(#clip0_221_1936)">
<path d="M24 20.3037C24 20.9769 23.8731 21.4961 23.6192 21.8613C23.3654 22.2266 23.0888 22.4933 22.7894 22.6616C22.49 22.8299 22.2134 22.9284 21.9596 22.957C21.7122 22.9857 21.5886 23 21.5886 23H12.4114C11.8061 23 11.3408 22.8604 11.0153 22.5811C10.6899 22.2946 10.4523 21.9831 10.3026 21.6465C10.153 21.3099 10.0651 21.002 10.0391 20.7227C10.013 20.4434 10 20.3037 10 20.3037V14.6963C10 14.0231 10.1269 13.5039 10.3808 13.1387C10.6281 12.7734 10.9031 12.5067 11.2057 12.3384C11.5084 12.1701 11.7834 12.0716 12.0307 12.043C12.2845 12.0143 12.4114 12 12.4114 12H21.5886C22.1874 12 22.6495 12.1396 22.9749 12.4189C23.3068 12.7054 23.5477 13.0169 23.6973 13.3535C23.847 13.6901 23.9349 13.998 23.9609 14.2773C23.987 14.5566 24 14.6963 24 14.6963V20.3037ZM19.7141 17.5107L15.1353 14.4922V20.5186L19.7141 17.5107Z" fill="white"/>
</g>
<defs>
<clipPath id="clip0_221_1936">
<rect width="17" height="14" fill="white" transform="translate(9 10)"/>
</clipPath>
</defs>
</svg>
